<?xml version="1.0" standalone="no"?><!DOCTYPE svg PUBLIC "-//W3C//DTD SVG 1.1//EN" "http://www.w3.org/Graphics/SVG/1.1/DTD/svg11.dtd"><svg t="1577547422885" class="icon" viewBox="0 0 1024 1024" version="1.1" xmlns="http://www.w3.org/2000/svg" p-id="37572" data-spm-anchor-id="a313x.7781069.0.i12" xmlns:xlink="http://www.w3.org/1999/xlink" width="200" height="200"><defs><style type="text/css"></style></defs><path d="M893.35 557.27c-9.76-82.72-46.27-162.88-109.74-226.35-150.01-150.01-393.22-150.01-543.23 0-63.47 63.47-99.97 143.63-109.74 226.35 9.76 82.72 46.27 162.88 109.74 226.35 150.01 150.01 393.22 150.01 543.23 0 63.47-63.47 99.98-143.63 109.74-226.35z m-289.01-35.24l-24.28-78.09-78.09-24.28 66.77-47.22-1.05-81.77 65.54 48.91 77.45-26.26-26.26 77.45 48.91 65.54-81.77-1.05-47.22 66.77z" fill="#ffffff" opacity=".5" p-id="37573" data-spm-anchor-id="a313x.7781069.0.i5" class=""></path><path d="M512 919.4c-52.9 0-104.48-10.04-153.29-29.83-50.55-20.5-95.9-50.61-134.78-89.49s-68.99-84.23-89.49-134.78c-19.8-48.82-29.84-100.4-29.84-153.3s10.04-104.48 29.83-153.29c20.5-50.55 50.61-95.9 89.49-134.78s84.23-68.99 134.78-89.49c48.82-19.8 100.4-29.84 153.3-29.84s104.48 10.04 153.29 29.83c50.55 20.5 95.9 50.61 134.78 89.49s68.99 84.23 89.49 134.78c19.8 48.82 29.84 100.4 29.84 153.3s-10.04 104.48-29.83 153.29c-20.5 50.55-50.61 95.9-89.49 134.78s-84.23 68.99-134.78 89.49c-48.82 19.8-100.4 29.84-153.3 29.84z m0-768.24c-96.38 0-187 37.53-255.15 105.69C188.69 325 151.16 415.62 151.16 512s37.53 187 105.69 255.15C325 835.31 415.62 872.84 512 872.84s187-37.53 255.15-105.69C835.31 699 872.84 608.38 872.84 512s-37.53-187-105.69-255.15C699 188.69 608.38 151.16 512 151.16z" fill="#ffffff" p-id="37574" data-spm-anchor-id="a313x.7781069.0.i10" class="selected"></path><path d="M606.69 555.89c-1.21 0-2.43-0.09-3.65-0.29a23.29 23.29 0 0 1-18.59-16.08l-23.71-76.26-76.26-23.71a23.274 23.274 0 0 1-16.08-18.59 23.287 23.287 0 0 1 9.55-22.65l65.2-46.11-1.02-79.85a23.276 23.276 0 0 1 12.71-21.04c7.9-4.02 17.39-3.21 24.49 2.08l64 47.76 75.63-25.65c8.39-2.85 17.67-0.68 23.94 5.59a23.268 23.268 0 0 1 5.58 23.94l-25.65 75.63 47.76 64c5.3 7.1 6.11 16.6 2.09 24.49s-12.15 12.81-21.04 12.71l-79.85-1.02-46.11 65.2a23.217 23.217 0 0 1-18.99 9.85z m-63.34-146.8l42.9 13.34c7.32 2.27 13.05 8 15.32 15.32l13.34 42.9 25.94-36.68a23.273 23.273 0 0 1 19.31-9.84l44.93 0.57-26.87-36.01a23.288 23.288 0 0 1-3.39-21.4l14.43-42.55-42.55 14.43a23.288 23.288 0 0 1-21.4-3.39l-36.01-26.87 0.57 44.93c0.1 7.66-3.58 14.88-9.84 19.3l-36.68 25.95z" fill="#ffffff" p-id="37575" data-spm-anchor-id="a313x.7781069.0.i11" class="selected"></path><path d="M619 789.23c-7 0-13.58-2.73-18.53-7.68-4.94-4.94-7.66-11.51-7.66-18.51s2.73-13.58 7.67-18.52c4.94-4.94 11.52-7.67 18.52-7.67s13.57 2.72 18.52 7.67c4.95 4.94 7.67 11.52 7.67 18.52s-2.72 13.57-7.67 18.52c-4.95 4.95-11.53 7.67-18.52 7.67zM503.77 822.15c-7 0-13.58-2.73-18.53-7.68-4.94-4.94-7.66-11.51-7.66-18.51 0-7 2.72-13.57 7.67-18.52 4.94-4.95 11.52-7.67 18.52-7.67 6.99 0 13.57 2.72 18.52 7.67 10.21 10.22 10.21 26.83 0.01 37.04-4.96 4.95-11.54 7.67-18.53 7.67zM400.88 752.18c-6.71 0-13.41-2.55-18.52-7.66-4.95-4.94-7.67-11.52-7.67-18.52s2.72-13.57 7.67-18.52c10.22-10.21 26.83-10.21 37.04 0 4.95 4.95 7.67 11.53 7.67 18.52 0 7-2.72 13.57-7.67 18.52-5.11 5.11-11.81 7.66-18.52 7.66z" fill="#4343A7" p-id="37576" data-spm-anchor-id="a313x.7781069.0.i6" class="selected"></path></svg>