<?xml version="1.0" standalone="no"?><!DOCTYPE svg PUBLIC "-//W3C//DTD SVG 1.1//EN" "http://www.w3.org/Graphics/SVG/1.1/DTD/svg11.dtd"><svg class="icon" width="200px" height="200.00px" viewBox="0 0 1024 1024" version="1.1" xmlns="http://www.w3.org/2000/svg"><path fill="#ffffff" d="M668.8 236.8H118.4C75.2 236.8 40 272 40 315.2v630.4c0 43.2 35.2 78.4 78.4 78.4h552c43.2 0 78.4-35.2 78.4-78.4V315.2c0-43.2-35.2-78.4-80-78.4z m0 708.8H118.4V315.2h552v630.4zM905.6 0H315.2c-22.4 0-40 17.6-40 40s17.6 40 40 40h590.4v668.8c0 22.4 17.6 40 40 40s40-17.6 40-40V78.4C984 35.2 948.8 0 905.6 0z" /></svg>