<?xml version="1.0" standalone="no"?><!DOCTYPE svg PUBLIC "-//W3C//DTD SVG 1.1//EN" "http://www.w3.org/Graphics/SVG/1.1/DTD/svg11.dtd"><svg class="icon" width="200px" height="200.00px" viewBox="0 0 1024 1024" version="1.1" xmlns="http://www.w3.org/2000/svg"><path fill="#ffffff" d="M917.376 243.456L500.8 4.8a34.144 34.144 0 0 0-34.336 0.096l0.16-0.096L50.112 243.52a33.952 33.952 0 0 0-17.088 29.376v477.44c0 12.16 6.528 23.296 17.088 29.44l416.512 238.72a34.88 34.88 0 0 0 34.336-0.064l-0.16 0.096 416.576-238.72c10.272-5.952 17.088-16.896 17.088-29.44v-477.44c0-12.544-6.816-23.488-16.928-29.344l-0.16-0.096z m-51.264 487.36l-382.4 219.136-382.336-219.136V292.48L483.712 73.344l382.4 219.136v438.272zM198.784 360.512a33.76 33.76 0 0 0 12.384 46.304l0.16 0.096 237.824 136.32V812.8c0 18.816 15.232 33.92 34.176 33.92h0.256a33.92 33.92 0 0 0 33.92-33.92V543.616L756.16 406.784a33.92 33.92 0 0 0 12.48-46.528l0.096 0.16a34.4 34.4 0 0 0-46.88-12.32l0.16-0.096-238.272 136.512L245.536 348a34.464 34.464 0 0 0-46.624 12.384l-0.096 0.16z" /></svg>